<?xml version="1.0" encoding="utf-8"?>
<!-- Generator: Adobe Adobe Illustrator 29.2.0, SVG Export Plug-In . SVG Version: 6.00 Build 0)  -->
<svg version="1.1" xmlns="http://www.w3.org/2000/svg" xmlns:xlink="http://www.w3.org/1999/xlink" x="0px" y="0px"
	 width="1088.04px" height="1068.96px" viewBox="0 0 1088.04 1068.96" style="enable-background:new 0 0 1088.04 1068.96;"
	 xml:space="preserve">
<style type="text/css">
	.st0{fill:none;stroke:#000000;stroke-width:45;stroke-miterlimit:10;}
	.st1{stroke:#000000;stroke-width:50;stroke-linecap:round;stroke-linejoin:round;stroke-miterlimit:10;}
	.st2{display:none;fill:none;stroke:#000000;stroke-width:40;stroke-miterlimit:10;}
	.st3{fill:none;stroke:#000000;stroke-width:40;stroke-miterlimit:10;}
	.st4{display:none;}
	.st5{display:inline;fill:none;stroke:#000000;stroke-width:200;stroke-miterlimit:10;}
	.st6{display:inline;}
	.st7{fill:none;}
</style>
<g id="Layer_3">
</g>
<g id="Layer_1">
	<path d="M938.93,405.13h7.22v-16.58H727.07v16.58h12.98c61.24-1.45,66.29,5.77,64.86,103.75V604H582.16v-95.12
		c-0.73-97.99,3.6-105.2,64.84-103.75h8.65v-16.58H443.82v16.58h3.6c30.98,0.72,47.56,10.8,47.56,30.26
		c0,15.13-12.25,30.98-51.16,65.58L297.54,633.55V508.17c-1.45-97.27,2.88-104.49,64.86-103.04h8.63v-16.58H158.46v16.58h5.05
		c61.26-1.45,65.58,5.77,64.86,103.04v236.36c0.72,98.72-4.33,108.09-61.26,108.09h-7.43v16.58h207.76v-16.58h-9.37
		c-56.93,0-61.98-9.37-60.53-108.09v-87.91l33.86-30.28l136.2,136.92c14.03,14.3,24.73,25.58,32.62,34.69
		c8.83,10.2,10.85,24.82,4.51,36.73c-8.24,15.5-23.97,17.94-53.01,17.94h-12.25v16.58h216.18v-16.58H643.4
		c-29.86,0-45.44-2.58-53.41-19.28c-7.22-15.13-8.18-41.88-7.83-88.81V628.5h222.76v116.02c0.72,98.72-4.33,108.09-61.26,108.09
		h-16.58v16.58h219.07v-16.58h-10.82c-56.93,0-61.98-9.37-61.24-108.09V508.88C872.64,410.89,877.69,403.68,938.93,405.13z
		 M512.98,508.88v206.03L381.85,581.67l87.19-80.71c16.6-15.98,30.91-29.35,43.64-40.53C513.3,473.4,513.26,489.33,512.98,508.88z"
		/>
</g>
<g id="Layer_2">
	<line class="st1" x1="175.85" y1="258.73" x2="313.22" y2="258.73"/>
	<path id="_x3C_Path_x3E_" class="st2" d="M30.65,394.31v479.64c0,61.78,50.08,111.87,111.87,111.87h800.5
		c61.78,0,111.87-50.08,111.87-111.87v-479.6c0-61.26-49.27-111.13-110.53-111.86l-139.89-2.62l-28.58-81.01
		c-14.61-41.41-53.75-69.11-97.67-69.11H557.17c-42.9,0-81.36,26.45-96.71,66.5l-32.05,83.61l-287.28,2.58
		C79.9,283.21,30.65,333.07,30.65,394.31z"/>
	<path id="_x3C_Path_x3E__00000142153491848980447760000013043410279796067712_" class="st3" d="M30.65,394.31v479.64
		c0,61.78,50.08,111.87,111.87,111.87h800.5c61.78,0,111.87-50.08,111.87-111.87v-479.6c0-61.26-49.27-111.13-110.53-111.86
		l-139.89-2.62l-28.58-81.01c-14.61-41.41-53.75-69.11-97.67-69.11H557.17c-42.9,0-81.36,26.45-96.71,66.5l-32.05,83.61
		l-287.28,2.58C79.9,283.21,30.65,333.07,30.65,394.31z"/>
</g>
<g id="Layer_6" class="st4">
	<circle class="st5" cx="542.77" cy="619.33" r="1166.17"/>
</g>
<g id="Layer_4" class="st4">
	<g id="Layer_4_copy" class="st6">
		<path id="SVGID_x5F_1_x5F_" class="st7" d="M-577.23,619.33c0-618.56,501.44-1120,1120-1120s1120,501.44,1120,1120
			s-501.44,1120-1120,1120S-577.23,1237.89-577.23,619.33z"/>
		<text>		<textPath  xlink:href="#SVGID_x5F_1_x5F_" startOffset="0%">
<tspan  style="fill:#FFFFFF; font-family:'JosefinSans-Regular'; font-size:140px; letter-spacing:-40;">Kitty Hutchinson Photography Kitty Hutchinson Photography Kitty Hutchinson Photography Kitty Hutchinson Photography Kitty Hutchinson Photography Kitty Hutchinson Photography Kitty Hutchinson Photography </tspan>		</textPath>
</text>
	</g>
</g>
</svg>
